<svg xmlns="http://www.w3.org/2000/svg" width="600" height="270" viewBox="0 0 600 270" role="img" aria-label="ThaiCarRental: Car and bike rental marketplace for Thailand with a CRM for suppliers: geo search on PostGIS, background jobs, typed API from a declarative schema."><title>ThaiCarRental: Car and bike rental marketplace for Thailand with a CRM for suppliers: geo search on PostGIS, background jobs, typed API from a declarative schema.</title><defs><clipPath id="frame"><rect width="600" height="270" rx="22"/></clipPath><radialGradient id="glow"><stop offset="0" stop-color="#34d399" stop-opacity="0.272"/><stop offset="1" stop-color="#34d399" stop-opacity="0"/></radialGradient><linearGradient id="icon" x1="0" y1="0" x2="1" y2="1"><stop offset="0" stop-color="#34d399"/><stop offset="1" stop-color="#059669"/></linearGradient><path id="g0" d="M223 0V582H11V710H589V582H376V0H223Z"/><path id="g1" d="M227 0V597H11V710H572V597H357V0H227Z"/><path id="g2" d="M70 0V710H198V412L182 412Q190 458 214 488Q238 517 273 532Q308 546 350 546Q409 546 450 520Q490 495 510 449Q531 403 531 343V0H403V312Q403 377 381 410Q359 442 312 442Q260 442 229 408Q198 374 198 309V0H70Z"/><path id="g3" d="M225 -12Q141 -12 90 26Q39 65 39 134Q39 203 82 242Q125 281 213 298L390 333Q390 390 364 418Q338 447 287 447Q241 447 214 425Q188 404 178 364L48 370Q64 455 126 500Q188 546 287 546Q401 546 460 489Q518 431 518 324V130Q518 109 526 101Q533 93 548 93H565V0Q559 -2 545 -3Q532 -4 518 -4Q485 -4 459 6Q433 17 419 43Q405 70 405 116L416 108Q408 73 381 45Q355 18 315 3Q275 -12 225 -12ZM251 81Q294 81 325 98Q356 115 373 145Q390 175 390 216V246L252 218Q209 209 191 191Q172 174 172 146Q172 115 192 98Q213 81 251 81Z"/><path id="g4" d="M70 0V534H198V0H70ZM68 605V719H201V605H68Z"/><path id="g5" d="M372 -16Q275 -16 201 28Q127 73 85 155Q43 238 43 354Q43 468 84 551Q125 635 199 680Q273 726 373 726Q509 726 584 659Q659 591 682 470L546 463Q533 533 490 573Q447 613 373 613Q313 613 269 581Q225 549 201 491Q177 433 177 354Q177 274 202 216Q226 159 270 128Q314 97 372 97Q451 97 495 141Q538 184 550 260L686 253Q672 170 632 110Q592 49 527 17Q461 -16 372 -16Z"/><path id="g6" d="M70 0V534H190L195 386L184 388Q196 465 230 500Q263 534 321 534H370V424H320Q279 424 252 412Q225 400 212 375Q198 349 198 308V0H70Z"/><path id="g7" d="M80 0V710H377Q454 710 510 684Q566 658 597 610Q628 562 628 497Q628 448 607 410Q586 372 550 349Q515 326 472 321L467 331Q536 331 574 300Q611 269 616 205L634 0H502L487 186Q484 228 460 248Q436 268 380 268H210V0H80ZM210 382H369Q428 382 461 410Q494 438 494 489Q494 541 460 569Q427 597 363 597H210V382Z"/><path id="g8" d="M301 -12Q221 -12 162 22Q103 57 71 120Q39 183 39 267Q39 351 71 414Q103 476 162 511Q220 546 298 546Q374 546 432 512Q489 478 520 414Q551 350 551 260V231H172Q176 161 210 126Q245 90 302 90Q345 90 373 110Q402 129 413 164L544 156Q522 78 458 33Q393 -12 301 -12ZM172 317H419Q415 382 382 414Q349 445 298 445Q247 445 213 412Q180 379 172 317Z"/><path id="g9" d="M70 0V534H186L191 384L176 390Q184 446 209 480Q234 514 270 530Q306 546 349 546Q408 546 449 520Q489 494 510 449Q531 403 531 343V0H403V302Q403 347 394 378Q385 409 365 426Q344 442 310 442Q259 442 229 406Q198 370 198 302V0H70Z"/><path id="g10" d="M284 0Q204 0 166 37Q129 74 129 153V659H257V165Q257 128 273 113Q289 99 323 99H398V0H284ZM45 435V534H398V435H45Z"/><path id="g11" d="M198 0Q140 0 105 30Q70 60 70 126V710H198V139Q198 119 209 109Q219 99 238 99H277V0H198Z"/><path id="g12" d="M90 0V710H306Q380 710 435 684Q490 658 520 610Q550 561 550 493Q550 425 520 376Q490 328 435 302Q380 276 306 276H176V0H90ZM176 360H296Q380 360 420 394Q460 429 460 493Q460 558 420 592Q380 626 296 626H176V360Z"/><path id="g13" d="M90 0V74H269L228 34V497L269 456H90V530H298L306 388L298 394Q306 463 340 496Q374 530 431 530H540V454H432Q393 454 366 438Q340 423 326 394Q312 364 312 320V34L272 74H480V0H90Z"/><path id="g14" d="M80 0V74H293V497L334 456H90V530H377V74H560V0H377H293H80ZM285 613V711H373V613H285Z"/><path id="g15" d="M247 0 50 530H142L300 86L458 530H550L353 0H247Z"/><path id="g16" d="M230 -12Q180 -12 140 6Q100 24 77 56Q54 89 54 132Q54 200 94 238Q135 275 222 292L400 328Q400 396 370 429Q339 462 282 462Q227 462 196 438Q165 413 153 367L64 374Q79 449 136 496Q192 542 282 542Q378 542 431 484Q484 427 484 326V106Q484 88 492 81Q500 74 516 74H550V0Q544 -1 531 -2Q518 -2 506 -2Q472 -2 448 9Q425 20 413 44Q401 69 400 108H416Q409 74 382 46Q356 19 316 4Q276 -12 230 -12ZM238 62Q292 62 328 80Q364 99 382 132Q400 166 400 210V256L238 224Q184 214 163 194Q142 173 142 140Q142 103 168 82Q193 62 238 62Z"/><path id="g17" d="M378 0Q301 0 263 36Q225 72 225 146V654H309V146Q309 109 326 92Q343 74 378 74H520V0H378ZM50 456V530H520V456H50Z"/><path id="g18" d="M306 -12Q231 -12 176 22Q122 56 92 118Q63 181 63 265Q63 349 92 411Q122 473 176 508Q229 542 302 542Q371 542 424 510Q477 477 507 415Q537 353 537 264V239H151Q156 154 196 111Q237 68 306 68Q358 68 392 92Q425 117 438 157L528 150Q507 79 448 34Q390 -12 306 -12ZM151 313H445Q439 390 400 426Q361 462 302 462Q241 462 202 424Q162 387 151 313Z"/><path id="g20" d="M80 -150V530H158L160 410L148 416Q168 478 214 510Q261 542 322 542Q401 542 452 503Q502 464 526 401Q550 338 550 265Q550 192 526 129Q502 66 452 27Q401 -12 322 -12Q281 -12 246 2Q210 16 186 41Q161 66 152 100L164 114V-150H80ZM314 68Q383 68 422 120Q462 172 462 265Q462 358 422 410Q383 462 314 462Q268 462 234 440Q201 418 182 374Q164 330 164 265Q164 200 182 156Q200 112 234 90Q268 68 314 68Z"/><path id="g21" d="M300 -12Q227 -12 172 22Q118 56 88 118Q58 181 58 265Q58 350 88 412Q118 474 172 508Q227 542 300 542Q373 542 428 508Q482 474 512 412Q542 350 542 265Q542 181 512 118Q482 56 428 22Q373 -12 300 -12ZM300 68Q373 68 414 120Q454 173 454 265Q454 357 414 410Q373 462 300 462Q227 462 186 410Q146 357 146 265Q146 173 186 120Q227 68 300 68Z"/><path id="g22" d="M310 -12Q241 -12 191 12Q141 36 112 76Q84 117 80 167L168 173Q176 124 212 96Q247 68 310 68Q369 68 402 85Q434 102 434 138Q434 161 423 176Q412 191 382 202Q352 212 294 222Q217 236 174 256Q130 277 112 308Q94 339 94 382Q94 428 117 464Q140 500 185 521Q230 542 295 542Q361 542 406 518Q450 495 476 456Q502 418 510 372L422 366Q416 394 400 416Q383 437 356 450Q330 462 294 462Q236 462 208 439Q180 416 180 382Q180 355 193 339Q206 323 235 314Q264 304 312 296Q394 283 439 262Q484 242 502 212Q520 182 520 138Q520 91 492 58Q465 24 418 6Q370 -12 310 -12Z"/><path id="g23" d="M136 -150V-76H197Q225 -76 238 -68Q252 -59 259 -40L278 10H249L52 530H144L305 88L456 530H548L333 -67Q318 -110 288 -130Q258 -150 205 -150H136Z"/><path id="g24" d="M86 0V710H306Q380 710 436 683Q491 656 522 607Q552 557 552 489Q552 421 522 372Q491 322 436 296Q380 269 306 269H191V0H86ZM191 368H295Q371 368 407 399Q443 430 443 489Q443 549 407 580Q371 611 295 611H191V368Z"/><path id="g25" d="M67 0V710H288Q401 710 466 653Q530 596 530 498Q530 447 508 408Q485 369 448 347Q412 325 371 322L367 334Q441 331 478 301Q514 270 520 202L538 0H433L417 182Q414 217 402 238Q390 259 365 268Q340 277 296 277H172V0H67ZM172 375H286Q352 375 387 406Q422 437 422 493Q422 550 387 581Q352 611 286 611H172V375Z"/><path id="g26" d="M78 0V99H248V611H78V710H522V611H352V99H522V0H78Z"/><path id="g27" d="M238 0 27 710H138L316 85H284L462 710H573L362 0H238Z"/><path id="g28" d="M24 0 232 710H368L576 0H467L300 601L133 0H24ZM140 185 172 282H428L460 185H140Z"/><path id="g29" d="M248 0V611H40V710H560V611H352V0H248Z"/><path id="g30" d="M88 0V710H524V611H193V404H512V308H193V99H532V0H88Z"/><path id="g31" d="M364 -16Q269 -16 197 28Q125 73 85 156Q45 239 45 354Q45 469 85 552Q125 636 197 681Q269 726 364 726Q493 726 564 661Q635 596 657 484L566 478Q551 554 502 598Q453 642 364 642Q296 642 244 608Q193 573 164 508Q135 444 135 354Q135 264 164 200Q193 136 244 102Q296 68 364 68Q457 68 508 116Q559 165 572 248L663 242Q650 165 612 107Q574 49 512 16Q449 -16 364 -16Z"/><path id="g32" d="M223 -12Q141 -12 92 26Q44 64 44 132Q44 200 84 239Q124 278 211 294L399 329Q399 396 368 429Q336 462 273 462Q218 462 186 438Q154 413 142 367L53 374Q68 449 126 496Q183 542 273 542Q375 542 429 484Q483 427 483 326V107Q483 89 490 82Q496 74 511 74H532V0Q528 -1 519 -2Q510 -2 500 -2Q464 -2 442 10Q419 21 409 46Q399 70 399 110L409 108Q402 74 375 46Q348 19 308 4Q268 -12 223 -12ZM231 62Q284 62 322 82Q359 103 379 138Q399 174 399 218V256L227 224Q173 214 152 194Q132 173 132 140Q132 103 158 82Q185 62 231 62Z"/><path id="g33" d="M80 0V530H154L158 396L150 399Q160 467 194 498Q227 530 283 530H335V450H284Q244 450 218 436Q191 421 178 392Q164 364 164 320V0H80Z"/><path id="g35" d="M80 0V530H157L160 395L150 404Q160 451 185 482Q210 512 246 527Q281 542 322 542Q383 542 422 515Q462 488 482 442Q501 397 501 341V0H417V317Q417 366 406 400Q394 433 369 450Q344 468 304 468Q243 468 204 430Q164 391 164 317V0H80Z"/><path id="g36" d="M268 -12Q199 -12 148 22Q98 56 71 118Q44 180 44 265Q44 350 71 412Q98 474 148 508Q199 542 268 542Q321 542 365 520Q409 497 431 456V710H515V0H439L436 80Q414 37 369 12Q324 -12 268 -12ZM285 68Q332 68 364 92Q397 116 414 160Q431 205 431 265Q431 327 414 371Q397 415 364 438Q332 462 285 462Q215 462 174 410Q132 357 132 265Q132 174 174 121Q215 68 285 68Z"/><path id="g37" d="M323 -12Q268 -12 225 12Q182 37 159 80L156 0H80V710H164V456Q184 489 226 516Q268 542 323 542Q393 542 444 508Q495 474 523 412Q551 350 551 265Q551 180 523 118Q495 56 444 22Q393 -12 323 -12ZM318 68Q385 68 424 121Q463 174 463 265Q463 357 424 410Q385 462 320 462Q271 462 236 438Q201 415 182 371Q164 327 164 265Q164 205 182 160Q201 116 236 92Q270 68 318 68Z"/><path id="g38" d="M80 0V530H164V0H80ZM78 613V711H166V613H78Z"/><path id="g39" d="M80 0V710H164V245L422 530H534L325 305L543 0H441L268 248L164 138V0H80Z"/><path id="g40" d="M287 -12Q212 -12 158 22Q103 56 74 118Q44 181 44 265Q44 349 74 411Q103 473 156 508Q210 542 283 542Q352 542 405 510Q458 477 488 415Q517 353 517 264V239H132Q137 154 178 111Q218 68 287 68Q339 68 372 92Q406 117 419 157L509 150Q488 79 430 34Q371 -12 287 -12ZM132 313H425Q419 390 380 426Q342 462 283 462Q222 462 182 424Q143 387 132 313Z"/><path id="g41" d="M274 0Q202 0 168 33Q133 66 133 136V654H217V138Q217 102 233 88Q249 74 282 74H358V0H274ZM55 456V530H358V456H55Z"/><path id="g42" d="M184 0Q138 0 109 24Q80 48 80 100V710H164V107Q164 91 172 82Q181 74 197 74H243V0H184Z"/><path id="g43" d="M80 0V530H157L160 396L148 400Q157 444 180 476Q202 507 235 524Q268 542 308 542Q377 542 420 504Q464 466 475 398L459 399Q467 445 488 476Q510 508 544 525Q578 542 622 542Q679 542 718 518Q757 495 777 450Q797 405 797 341V0H713V323Q713 395 685 432Q657 468 602 468Q565 468 538 450Q510 432 495 398Q480 365 480 317V0H396V317Q396 388 371 428Q346 468 287 468Q250 468 222 450Q195 432 180 398Q164 364 164 317V0H80Z"/><path id="g44" d="M80 -150V530H158L160 416L148 422Q168 481 214 512Q261 542 322 542Q401 542 452 503Q502 464 526 401Q551 338 551 265Q551 192 526 129Q502 66 452 27Q401 -12 322 -12Q281 -12 246 2Q210 16 186 41Q161 66 152 100L164 114V-150H80ZM314 68Q383 68 423 120Q463 172 463 265Q463 358 423 410Q383 462 314 462Q268 462 234 440Q201 418 182 374Q164 330 164 265Q164 200 182 156Q200 112 234 90Q268 68 314 68Z"/><path id="g45" d="M287 -12Q213 -12 158 22Q104 56 74 118Q44 181 44 265Q44 349 74 411Q104 473 158 508Q213 542 287 542Q348 542 396 520Q443 499 473 458Q503 417 512 358L424 352Q415 405 378 434Q341 462 287 462Q214 462 173 410Q132 357 132 265Q132 173 173 120Q214 68 287 68Q341 68 378 98Q415 128 424 188L512 182Q503 123 473 80Q443 36 396 12Q348 -12 287 -12Z"/><path id="g46" d="M132 0V578Q132 637 166 674Q200 710 272 710H356V636H278Q247 636 232 619Q216 602 216 572V0H132ZM60 456V530H349V456H60Z"/><path id="g47" d="M287 -12Q214 -12 159 22Q104 56 74 118Q44 181 44 265Q44 350 74 412Q104 474 159 508Q214 542 287 542Q360 542 414 508Q469 474 499 412Q529 350 529 265Q529 181 499 118Q469 56 414 22Q360 -12 287 -12ZM287 68Q360 68 400 120Q441 173 441 265Q441 357 400 410Q360 462 287 462Q214 462 173 410Q132 357 132 265Q132 173 173 120Q214 68 287 68Z"/><path id="g48" d="M233 0V626H12V710H540V626H319V0H233Z"/><path id="g49" d="M80 0V710H164V413L154 415Q164 459 188 487Q212 515 247 528Q282 542 324 542Q381 542 420 516Q460 491 480 446Q501 400 501 341V0H417V317Q417 394 390 431Q362 468 306 468Q242 468 203 429Q164 390 164 316V0H80Z"/><path id="g50" d="M186 0 22 530H114L238 88L364 530H454L580 88L705 530H797L633 0H527L409 403L291 0H186Z"/><path id="g51" d="M92 0V710H361Q436 710 490 684Q544 658 574 610Q603 561 603 495Q603 447 580 410Q558 372 523 350Q488 328 450 326L444 335Q509 335 546 305Q584 275 590 209L610 0H523L505 200Q501 244 474 265Q446 286 384 286H178V0H92ZM178 370H372Q437 370 475 403Q513 436 513 497Q513 559 474 592Q435 626 361 626H178V370Z"/><path id="g52" d="M92 0V710H212L439 94L665 710H785V0H699V550L496 0H381L178 550V0H92Z"/><path id="g53" d="M273 -12Q200 -12 150 11Q101 34 74 74Q48 115 44 167L132 173Q140 125 172 96Q203 68 273 68Q327 68 356 86Q386 103 386 142Q386 163 376 177Q367 191 339 202Q311 212 257 222Q183 236 141 257Q99 278 82 308Q65 338 65 380Q65 451 118 496Q170 542 266 542Q336 542 380 518Q425 493 448 454Q471 415 476 372L388 366Q386 391 373 413Q360 435 334 448Q308 462 264 462Q207 462 180 440Q153 418 153 384Q153 358 164 342Q174 325 200 314Q227 304 273 296Q351 283 395 263Q439 243 456 214Q474 184 474 142Q474 69 418 28Q361 -12 273 -12Z"/><path id="g54" d="M254 -12Q175 -12 128 42Q80 95 80 189V530H164V212Q164 135 192 98Q219 62 276 62Q339 62 375 102Q411 143 411 214V530H495V0H415V131L428 124Q412 59 367 24Q322 -12 254 -12Z"/><path id="g55" d="M92 0V113H205V0H92ZM92 393V506H205V393H92Z"/><path id="g56" d="M281 -162Q224 -162 178 -143Q132 -124 101 -89Q70 -54 59 -8L147 -2Q159 -39 190 -60Q220 -82 281 -82Q353 -82 392 -53Q430 -24 430 34V120Q411 78 369 53Q327 28 275 28Q208 28 156 61Q103 94 74 152Q44 210 44 285Q44 361 73 418Q102 476 154 509Q205 542 271 542Q327 542 372 516Q416 490 434 446V530H514V36Q514 -26 486 -70Q458 -115 406 -138Q354 -162 281 -162ZM279 108Q347 108 388 156Q429 203 430 285Q431 340 412 380Q394 419 360 440Q325 462 279 462Q209 462 170 414Q132 367 132 285Q132 203 172 156Q211 108 279 108Z"/><path id="g57" d="M92 0V710H347Q466 710 532 653Q598 596 598 495Q598 427 568 378Q538 328 482 302Q426 276 347 276H178V0H92ZM178 360H347Q427 360 468 394Q508 428 508 495Q508 560 468 593Q427 626 347 626H178V360Z"/><path id="g58" d="M362 -16Q262 -16 191 32Q120 80 82 164Q45 247 45 354Q45 461 83 545Q121 629 192 678Q264 726 364 726Q449 726 508 695Q566 664 600 611Q635 558 648 492L558 486Q545 555 500 598Q455 642 364 642Q283 642 232 602Q182 562 158 496Q135 431 135 354Q135 273 159 208Q183 144 234 106Q285 68 364 68Q427 68 473 96Q519 125 544 173Q569 221 570 277H366V359H650V0H586L580 164L592 150Q580 102 546 64Q512 27 464 6Q417 -16 362 -16Z"/><path id="g59" d="M92 0V710H178V0H92Z"/><path id="g60" d="M336 -16Q254 -16 193 15Q132 46 96 100Q61 155 55 227L145 233Q152 180 176 143Q200 106 240 87Q281 68 338 68Q388 68 423 81Q458 94 476 119Q495 144 495 180Q495 213 480 238Q464 264 420 286Q377 307 292 328Q210 349 162 374Q113 399 92 435Q70 471 70 524Q70 584 98 630Q127 675 180 700Q233 726 306 726Q384 726 440 696Q496 667 529 616Q562 565 570 500L480 494Q474 537 452 570Q431 604 394 623Q357 642 304 642Q238 642 199 610Q160 579 160 528Q160 495 176 474Q191 452 231 436Q271 419 346 400Q435 378 488 348Q540 317 562 277Q585 237 585 186Q585 124 553 78Q521 33 465 8Q409 -16 336 -16Z"/><path id="g61" d="M47 -156 95 0H44V113H157V14L97 -156H47Z"/><path id="g62" d="M-5 -150V-76H38Q64 -76 80 -64Q96 -51 96 -18V530H180V-22Q180 -92 149 -121Q118 -150 46 -150H-5ZM94 613V711H182V613H94Z"/><path id="g63" d="M103 -150V-76H164Q192 -76 206 -68Q219 -59 226 -40L245 10H216L22 530H114L272 88L423 530H515L300 -67Q285 -110 255 -130Q225 -150 172 -150H103Z"/><path id="g64" d="M20 0 276 710H392L648 0H554L483 202H185L114 0H20ZM214 286H454L334 635L214 286Z"/><path id="g65" d="M215 0 22 530H114L268 86L422 530H514L321 0H215Z"/><path id="g66" d="M44 0V113H157V0H44Z"/><path id="g67" d="M298 -16Q223 -16 164 26Q106 67 72 150Q38 232 38 354Q38 469 70 552Q101 635 160 680Q219 726 302 726Q367 726 418 697Q468 668 502 616Q536 565 551 498L461 492Q444 558 404 600Q365 642 302 642Q247 642 208 608Q169 575 148 510Q128 446 128 354Q128 263 149 199Q170 135 210 102Q249 68 306 68Q357 68 394 94Q430 121 451 168Q472 216 474 277H304V359H554V0H474L470 168L494 160Q480 109 456 69Q431 29 392 6Q354 -16 298 -16Z"/><path id="g68" d="M60 0V710H146V365L102 399H498L454 365V710H540V0H454V349L498 315H102L146 349V0H60Z"/><path id="g69" d="M263 -12Q184 -12 137 42Q90 95 90 189V530H174V212Q174 135 202 98Q229 62 286 62Q348 62 384 102Q420 143 420 214V530H504V0H424V131L437 124Q421 59 376 24Q331 -12 263 -12Z"/><path id="g70" d="M40 0V530H117L120 412L110 414Q119 473 148 508Q178 542 224 542Q271 542 296 508Q322 474 328 408H318Q327 470 358 506Q390 542 438 542Q502 542 531 498Q560 454 560 352V0H476V340Q476 411 461 440Q446 468 414 468Q393 468 377 454Q361 441 352 412Q342 383 342 338V0H258V340Q258 408 244 438Q229 468 196 468Q175 468 159 454Q143 441 134 412Q124 383 124 338V0H40Z"/><path id="g71" d="M520 -150H436V114L448 100Q439 66 414 41Q390 16 354 2Q319 -12 278 -12Q199 -12 148 27Q98 66 74 129Q50 192 50 265Q50 338 74 401Q98 464 148 503Q199 542 278 542Q340 542 386 510Q433 478 452 416L440 410L442 530H520V-150ZM286 68Q333 68 366 90Q400 112 418 156Q436 200 436 265Q436 330 418 374Q399 418 366 440Q332 462 286 462Q217 462 178 410Q138 358 138 265Q138 172 178 120Q217 68 286 68Z"/><path id="g72" d="M273 30V568Q273 600 255 618Q237 636 205 636H80V710H209Q282 710 320 672Q357 635 357 562V30H273ZM60 0V74H540V0H60Z"/><path id="g73" d="M314 -12Q240 -12 185 22Q130 56 100 118Q70 181 70 265Q70 349 100 411Q130 473 185 508Q240 542 314 542Q373 542 419 520Q465 499 495 458Q525 417 536 358L448 352Q436 405 400 434Q365 462 314 462Q241 462 200 410Q158 357 158 265Q158 173 200 120Q241 68 314 68Q365 68 402 98Q440 128 452 188L540 182Q529 123 498 80Q467 36 420 12Q373 -12 314 -12Z"/><path id="g74" d="M80 0V84H257V626H80V710H520V626H343V84H520V0H80Z"/><path id="g75" d="M311 -16Q236 -16 178 15Q120 46 85 100Q50 155 44 227L134 233Q141 180 164 143Q188 106 226 87Q263 68 313 68Q363 68 397 80Q431 93 448 118Q466 142 466 177Q466 211 450 236Q435 260 392 282Q350 303 267 326Q193 347 148 372Q102 398 82 434Q61 471 61 524Q61 584 90 630Q118 675 171 700Q224 726 297 726Q370 726 422 696Q474 667 504 616Q535 565 543 500L453 494Q447 537 428 570Q409 604 376 623Q343 642 295 642Q229 642 190 610Q151 579 151 528Q151 495 166 474Q180 452 217 436Q254 419 321 400Q408 376 460 346Q511 316 534 275Q556 234 556 175Q556 119 525 76Q494 32 439 8Q384 -16 311 -16Z"/><path id="g76" d="M70 0V710H192L459 61L444 58V710H530V0H408L141 649L156 653V0H70Z"/><path id="g77" d="M54 0 249 272 64 530H162L301 330L437 530H537L353 270L546 0H448L301 214L154 0H54Z"/><path id="g78" d="M238 0V122H362V0H238Z"/><path id="g79" d="M110 -150V-76H278Q317 -76 336 -59Q356 -42 356 6V497L397 456H120V530H440V0Q440 -73 404 -112Q368 -150 288 -150H110ZM351 613V711H439V613H351Z"/><path id="g80" d="M284 0V526H98V600H194Q232 600 256 611Q279 622 290 646Q300 670 300 710H370V0H284ZM60 0V84H540V0H60Z"/><path id="g81" d="M298 -16Q229 -16 178 9Q126 34 96 79Q65 124 60 183L150 189Q158 129 198 98Q237 68 298 68Q367 68 408 110Q450 153 450 228Q450 278 432 314Q414 351 380 370Q347 390 300 390Q258 390 220 370Q181 349 164 311H72L119 710H497V626H198L166 364L150 380Q166 411 192 431Q218 451 250 462Q281 472 312 472Q380 472 432 440Q483 409 512 354Q540 299 540 228Q540 157 509 102Q478 46 424 15Q369 -16 298 -16Z"/></defs><rect x="0.5" y="0.5" width="599" height="269" rx="22" fill="#11151c" stroke="#252b37"/><g clip-path="url(#frame)"><circle cx="560" cy="0" r="220" fill="url(#glow)"/></g><rect x="32" y="32" width="48" height="48" rx="14" fill="url(#icon)"/><g fill="#ffffff"><use href="#g0" transform="matrix(0.024 0 0 -0.024 48.8 65)"/></g><g fill="#f3f5f9"><use href="#g1" transform="matrix(0.025 0 0 -0.025 96 60)"/><use href="#g2" transform="matrix(0.025 0 0 -0.025 109.8 60)"/><use href="#g3" transform="matrix(0.025 0 0 -0.025 124.2 60)"/><use href="#g4" transform="matrix(0.025 0 0 -0.025 138.2 60)"/><use href="#g5" transform="matrix(0.025 0 0 -0.025 144.2 60)"/><use href="#g3" transform="matrix(0.025 0 0 -0.025 161.8 60)"/><use href="#g6" transform="matrix(0.025 0 0 -0.025 176 60)"/><use href="#g7" transform="matrix(0.025 0 0 -0.025 185.2 60)"/><use href="#g8" transform="matrix(0.025 0 0 -0.025 201.8 60)"/><use href="#g9" transform="matrix(0.025 0 0 -0.025 216 60)"/><use href="#g10" transform="matrix(0.025 0 0 -0.025 229.8 60)"/><use href="#g3" transform="matrix(0.025 0 0 -0.025 240 60)"/><use href="#g11" transform="matrix(0.025 0 0 -0.025 253.9 60)"/></g><g fill="#6f7888"><use href="#g12" transform="matrix(0.0125 0 0 -0.0125 96 83)"/><use href="#g13" transform="matrix(0.0125 0 0 -0.0125 103.5 83)"/><use href="#g14" transform="matrix(0.0125 0 0 -0.0125 111 83)"/><use href="#g15" transform="matrix(0.0125 0 0 -0.0125 118.5 83)"/><use href="#g16" transform="matrix(0.0125 0 0 -0.0125 126 83)"/><use href="#g17" transform="matrix(0.0125 0 0 -0.0125 133.5 83)"/><use href="#g18" transform="matrix(0.0125 0 0 -0.0125 141 83)"/><use href="#g13" transform="matrix(0.0125 0 0 -0.0125 156 83)"/><use href="#g18" transform="matrix(0.0125 0 0 -0.0125 163.5 83)"/><use href="#g20" transform="matrix(0.0125 0 0 -0.0125 171 83)"/><use href="#g21" transform="matrix(0.0125 0 0 -0.0125 178.5 83)"/><use href="#g22" transform="matrix(0.0125 0 0 -0.0125 186 83)"/><use href="#g14" transform="matrix(0.0125 0 0 -0.0125 193.5 83)"/><use href="#g17" transform="matrix(0.0125 0 0 -0.0125 201 83)"/><use href="#g21" transform="matrix(0.0125 0 0 -0.0125 208.5 83)"/><use href="#g13" transform="matrix(0.0125 0 0 -0.0125 216 83)"/><use href="#g23" transform="matrix(0.0125 0 0 -0.0125 223.5 83)"/></g><rect x="486.5" y="36" width="81.5" height="26" rx="13" fill="none" stroke="#252b37" stroke-opacity="0.7"/><g fill="#6f7888"><use href="#g24" transform="matrix(0.0115 0 0 -0.0115 499.5 53)"/><use href="#g25" transform="matrix(0.0115 0 0 -0.0115 507.6 53)"/><use href="#g26" transform="matrix(0.0115 0 0 -0.0115 515.7 53)"/><use href="#g27" transform="matrix(0.0115 0 0 -0.0115 523.8 53)"/><use href="#g28" transform="matrix(0.0115 0 0 -0.0115 531.9 53)"/><use href="#g29" transform="matrix(0.0115 0 0 -0.0115 540 53)"/><use href="#g30" transform="matrix(0.0115 0 0 -0.0115 548.1 53)"/></g><g fill="#a3acbb"><use href="#g31" transform="matrix(0.016 0 0 -0.016 32 132)"/><use href="#g32" transform="matrix(0.016 0 0 -0.016 43.2 132)"/><use href="#g33" transform="matrix(0.016 0 0 -0.016 51.9 132)"/><use href="#g32" transform="matrix(0.016 0 0 -0.016 62 132)"/><use href="#g35" transform="matrix(0.016 0 0 -0.016 70.8 132)"/><use href="#g36" transform="matrix(0.016 0 0 -0.016 79.9 132)"/><use href="#g37" transform="matrix(0.016 0 0 -0.016 93.4 132)"/><use href="#g38" transform="matrix(0.016 0 0 -0.016 102.7 132)"/><use href="#g39" transform="matrix(0.016 0 0 -0.016 106.3 132)"/><use href="#g40" transform="matrix(0.016 0 0 -0.016 115 132)"/><use href="#g33" transform="matrix(0.016 0 0 -0.016 127.9 132)"/><use href="#g40" transform="matrix(0.016 0 0 -0.016 133.4 132)"/><use href="#g35" transform="matrix(0.016 0 0 -0.016 142.2 132)"/><use href="#g41" transform="matrix(0.016 0 0 -0.016 150.8 132)"/><use href="#g32" transform="matrix(0.016 0 0 -0.016 156.9 132)"/><use href="#g42" transform="matrix(0.016 0 0 -0.016 165.6 132)"/><use href="#g43" transform="matrix(0.016 0 0 -0.016 173.9 132)"/><use href="#g32" transform="matrix(0.016 0 0 -0.016 187.7 132)"/><use href="#g33" transform="matrix(0.016 0 0 -0.016 196.5 132)"/><use href="#g39" transform="matrix(0.016 0 0 -0.016 202.1 132)"/><use href="#g40" transform="matrix(0.016 0 0 -0.016 210.7 132)"/><use href="#g41" transform="matrix(0.016 0 0 -0.016 219.2 132)"/><use href="#g44" transform="matrix(0.016 0 0 -0.016 225.6 132)"/><use href="#g42" transform="matrix(0.016 0 0 -0.016 235 132)"/><use href="#g32" transform="matrix(0.016 0 0 -0.016 239.3 132)"/><use href="#g45" transform="matrix(0.016 0 0 -0.016 248 132)"/><use href="#g40" transform="matrix(0.016 0 0 -0.016 256.6 132)"/><use href="#g46" transform="matrix(0.016 0 0 -0.016 269.6 132)"/><use href="#g47" transform="matrix(0.016 0 0 -0.016 275.2 132)"/><use href="#g33" transform="matrix(0.016 0 0 -0.016 284.2 132)"/><use href="#g48" transform="matrix(0.016 0 0 -0.016 294.2 132)"/><use href="#g49" transform="matrix(0.016 0 0 -0.016 302.6 132)"/><use href="#g32" transform="matrix(0.016 0 0 -0.016 311.7 132)"/><use href="#g38" transform="matrix(0.016 0 0 -0.016 320.4 132)"/><use href="#g42" transform="matrix(0.016 0 0 -0.016 324.2 132)"/><use href="#g32" transform="matrix(0.016 0 0 -0.016 328.4 132)"/><use href="#g35" transform="matrix(0.016 0 0 -0.016 337.2 132)"/><use href="#g36" transform="matrix(0.016 0 0 -0.016 346.3 132)"/><use href="#g50" transform="matrix(0.016 0 0 -0.016 359.8 132)"/><use href="#g38" transform="matrix(0.016 0 0 -0.016 372.8 132)"/><use href="#g41" transform="matrix(0.016 0 0 -0.016 376 132)"/><use href="#g49" transform="matrix(0.016 0 0 -0.016 382 132)"/><use href="#g32" transform="matrix(0.016 0 0 -0.016 395.3 132)"/><use href="#g31" transform="matrix(0.016 0 0 -0.016 408.1 132)"/><use href="#g51" transform="matrix(0.016 0 0 -0.016 419.4 132)"/><use href="#g52" transform="matrix(0.016 0 0 -0.016 430.2 132)"/><use href="#g46" transform="matrix(0.016 0 0 -0.016 448.2 132)"/><use href="#g47" transform="matrix(0.016 0 0 -0.016 453.8 132)"/><use href="#g33" transform="matrix(0.016 0 0 -0.016 462.8 132)"/><use href="#g53" transform="matrix(0.016 0 0 -0.016 472.9 132)"/><use href="#g54" transform="matrix(0.016 0 0 -0.016 481.1 132)"/><use href="#g44" transform="matrix(0.016 0 0 -0.016 490.3 132)"/><use href="#g44" transform="matrix(0.016 0 0 -0.016 499.6 132)"/><use href="#g42" transform="matrix(0.016 0 0 -0.016 509.1 132)"/><use href="#g38" transform="matrix(0.016 0 0 -0.016 513.2 132)"/><use href="#g40" transform="matrix(0.016 0 0 -0.016 516.9 132)"/><use href="#g33" transform="matrix(0.016 0 0 -0.016 525.8 132)"/><use href="#g53" transform="matrix(0.016 0 0 -0.016 531.2 132)"/><use href="#g55" transform="matrix(0.016 0 0 -0.016 539.5 132)"/></g><g fill="#a3acbb"><use href="#g56" transform="matrix(0.016 0 0 -0.016 32 157)"/><use href="#g40" transform="matrix(0.016 0 0 -0.016 41.3 157)"/><use href="#g47" transform="matrix(0.016 0 0 -0.016 50.2 157)"/><use href="#g53" transform="matrix(0.016 0 0 -0.016 63.3 157)"/><use href="#g40" transform="matrix(0.016 0 0 -0.016 71.5 157)"/><use href="#g32" transform="matrix(0.016 0 0 -0.016 80.5 157)"/><use href="#g33" transform="matrix(0.016 0 0 -0.016 89.3 157)"/><use href="#g45" transform="matrix(0.016 0 0 -0.016 94.7 157)"/><use href="#g49" transform="matrix(0.016 0 0 -0.016 103.3 157)"/><use href="#g47" transform="matrix(0.016 0 0 -0.016 116.6 157)"/><use href="#g35" transform="matrix(0.016 0 0 -0.016 125.6 157)"/><use href="#g57" transform="matrix(0.016 0 0 -0.016 138.9 157)"/><use href="#g47" transform="matrix(0.016 0 0 -0.016 148.8 157)"/><use href="#g53" transform="matrix(0.016 0 0 -0.016 157.8 157)"/><use href="#g41" transform="matrix(0.016 0 0 -0.016 165.7 157)"/><use href="#g58" transform="matrix(0.016 0 0 -0.016 172 157)"/><use href="#g59" transform="matrix(0.016 0 0 -0.016 183.2 157)"/><use href="#g60" transform="matrix(0.016 0 0 -0.016 187.2 157)"/><use href="#g61" transform="matrix(0.016 0 0 -0.016 197.2 157)"/><use href="#g37" transform="matrix(0.016 0 0 -0.016 204.4 157)"/><use href="#g32" transform="matrix(0.016 0 0 -0.016 214 157)"/><use href="#g45" transform="matrix(0.016 0 0 -0.016 222.7 157)"/><use href="#g39" transform="matrix(0.016 0 0 -0.016 231.3 157)"/><use href="#g56" transform="matrix(0.016 0 0 -0.016 239.9 157)"/><use href="#g33" transform="matrix(0.016 0 0 -0.016 249.4 157)"/><use href="#g47" transform="matrix(0.016 0 0 -0.016 254.8 157)"/><use href="#g54" transform="matrix(0.016 0 0 -0.016 263.8 157)"/><use href="#g35" transform="matrix(0.016 0 0 -0.016 273 157)"/><use href="#g36" transform="matrix(0.016 0 0 -0.016 282.1 157)"/><use href="#g62" transform="matrix(0.016 0 0 -0.016 295.7 157)"/><use href="#g47" transform="matrix(0.016 0 0 -0.016 299.7 157)"/><use href="#g37" transform="matrix(0.016 0 0 -0.016 308.7 157)"/><use href="#g53" transform="matrix(0.016 0 0 -0.016 318 157)"/><use href="#g61" transform="matrix(0.016 0 0 -0.016 326.4 157)"/><use href="#g41" transform="matrix(0.016 0 0 -0.016 333.6 157)"/><use href="#g63" transform="matrix(0.016 0 0 -0.016 339.7 157)"/><use href="#g44" transform="matrix(0.016 0 0 -0.016 347.9 157)"/><use href="#g40" transform="matrix(0.016 0 0 -0.016 357.2 157)"/><use href="#g36" transform="matrix(0.016 0 0 -0.016 366.1 157)"/><use href="#g64" transform="matrix(0.016 0 0 -0.016 379.6 157)"/><use href="#g57" transform="matrix(0.016 0 0 -0.016 390 157)"/><use href="#g59" transform="matrix(0.016 0 0 -0.016 400 157)"/><use href="#g46" transform="matrix(0.016 0 0 -0.016 408.4 157)"/><use href="#g33" transform="matrix(0.016 0 0 -0.016 414.2 157)"/><use href="#g47" transform="matrix(0.016 0 0 -0.016 419.6 157)"/><use href="#g43" transform="matrix(0.016 0 0 -0.016 428.6 157)"/><use href="#g32" transform="matrix(0.016 0 0 -0.016 446.7 157)"/><use href="#g36" transform="matrix(0.016 0 0 -0.016 459.5 157)"/><use href="#g40" transform="matrix(0.016 0 0 -0.016 468.8 157)"/><use href="#g45" transform="matrix(0.016 0 0 -0.016 477.6 157)"/><use href="#g42" transform="matrix(0.016 0 0 -0.016 486.3 157)"/><use href="#g32" transform="matrix(0.016 0 0 -0.016 490.6 157)"/><use href="#g33" transform="matrix(0.016 0 0 -0.016 499.3 157)"/><use href="#g32" transform="matrix(0.016 0 0 -0.016 504.8 157)"/><use href="#g41" transform="matrix(0.016 0 0 -0.016 512.8 157)"/><use href="#g38" transform="matrix(0.016 0 0 -0.016 518.8 157)"/><use href="#g65" transform="matrix(0.016 0 0 -0.016 522.5 157)"/><use href="#g40" transform="matrix(0.016 0 0 -0.016 530.7 157)"/></g><g fill="#a3acbb"><use href="#g53" transform="matrix(0.016 0 0 -0.016 32 182)"/><use href="#g45" transform="matrix(0.016 0 0 -0.016 40.2 182)"/><use href="#g49" transform="matrix(0.016 0 0 -0.016 48.7 182)"/><use href="#g40" transform="matrix(0.016 0 0 -0.016 57.8 182)"/><use href="#g43" transform="matrix(0.016 0 0 -0.016 66.7 182)"/><use href="#g32" transform="matrix(0.016 0 0 -0.016 80.5 182)"/><use href="#g66" transform="matrix(0.016 0 0 -0.016 89.7 182)"/></g><rect x="32" y="210" width="39" height="30" rx="15.0" fill="#171c25" stroke="#252b37"/><g fill="#a3acbb"><use href="#g67" transform="matrix(0.0125 0 0 -0.0125 44 229.5)"/><use href="#g21" transform="matrix(0.0125 0 0 -0.0125 51.5 229.5)"/></g><rect x="79" y="210" width="54" height="30" rx="15.0" fill="#171c25" stroke="#252b37"/><g fill="#a3acbb"><use href="#g68" transform="matrix(0.0125 0 0 -0.0125 91 229.5)"/><use href="#g69" transform="matrix(0.0125 0 0 -0.0125 98.5 229.5)"/><use href="#g70" transform="matrix(0.0125 0 0 -0.0125 106 229.5)"/><use href="#g16" transform="matrix(0.0125 0 0 -0.0125 113.5 229.5)"/></g><rect x="141" y="210" width="54" height="30" rx="15.0" fill="#171c25" stroke="#252b37"/><g fill="#a3acbb"><use href="#g22" transform="matrix(0.0125 0 0 -0.0125 153 229.5)"/><use href="#g71" transform="matrix(0.0125 0 0 -0.0125 160.5 229.5)"/><use href="#g72" transform="matrix(0.0125 0 0 -0.0125 168 229.5)"/><use href="#g73" transform="matrix(0.0125 0 0 -0.0125 175.5 229.5)"/></g><rect x="203" y="210" width="76.5" height="30" rx="15.0" fill="#171c25" stroke="#252b37"/><g fill="#a3acbb"><use href="#g12" transform="matrix(0.0125 0 0 -0.0125 215 229.5)"/><use href="#g21" transform="matrix(0.0125 0 0 -0.0125 222.5 229.5)"/><use href="#g22" transform="matrix(0.0125 0 0 -0.0125 230 229.5)"/><use href="#g17" transform="matrix(0.0125 0 0 -0.0125 237.5 229.5)"/><use href="#g67" transform="matrix(0.0125 0 0 -0.0125 245 229.5)"/><use href="#g74" transform="matrix(0.0125 0 0 -0.0125 252.5 229.5)"/><use href="#g75" transform="matrix(0.0125 0 0 -0.0125 260 229.5)"/></g><rect x="287.5" y="210" width="99" height="30" rx="15.0" fill="#171c25" stroke="#252b37"/><g fill="#a3acbb"><use href="#g76" transform="matrix(0.0125 0 0 -0.0125 299.5 229.5)"/><use href="#g18" transform="matrix(0.0125 0 0 -0.0125 307 229.5)"/><use href="#g77" transform="matrix(0.0125 0 0 -0.0125 314.5 229.5)"/><use href="#g17" transform="matrix(0.0125 0 0 -0.0125 322 229.5)"/><use href="#g78" transform="matrix(0.0125 0 0 -0.0125 329.5 229.5)"/><use href="#g79" transform="matrix(0.0125 0 0 -0.0125 337 229.5)"/><use href="#g22" transform="matrix(0.0125 0 0 -0.0125 344.5 229.5)"/><use href="#g80" transform="matrix(0.0125 0 0 -0.0125 359.5 229.5)"/><use href="#g81" transform="matrix(0.0125 0 0 -0.0125 367 229.5)"/></g></svg>
